<mxfile host="Electron" modified="2024-06-25T00:06:36.704Z" agent="Mozilla/5.0 (Windows NT 10.0; Win64; x64) AppleWebKit/537.36 (KHTML, like Gecko) draw.io/24.5.3 Chrome/124.0.6367.207 Electron/30.0.6 Safari/537.36" version="24.5.3" etag="-gWJfWiM1Pw2gsSepr7E" type="device">
  <diagram id="gLqaxYwyehc-N7VfR_vB" name="PÃ¡gina-1">
    <mxGraphModel dx="2625" dy="1553" grid="1" gridSize="10" guides="1" tooltips="1" connect="1" arrows="1" fold="1" page="1" pageScale="1" pageWidth="1169" pageHeight="827" background="#ffffff" math="0" shadow="0">
      <root>
        <mxCell id="0" />
        <mxCell id="1" parent="0" />
        <mxCell id="10" style="edgeStyle=none;html=1;entryX=0;entryY=0.5;entryDx=0;entryDy=0;fontSize=26;strokeColor=#000000;" parent="1" source="3" target="9" edge="1">
          <mxGeometry relative="1" as="geometry" />
        </mxCell>
        <mxCell id="3" value="&lt;font style=&quot;font-size: 26px;&quot; color=&quot;#000000&quot;&gt;UI(n)&lt;/font&gt;" style="rounded=0;whiteSpace=wrap;html=1;fillColor=#FFFFFF;strokeColor=#000000;" parent="1" vertex="1">
          <mxGeometry x="62.5" y="208.57999999999998" width="120" height="60" as="geometry" />
        </mxCell>
        <mxCell id="147" style="edgeStyle=none;html=1;exitX=1;exitY=0.5;exitDx=0;exitDy=0;strokeColor=#000000;fontColor=#000000;" parent="1" source="9" edge="1">
          <mxGeometry relative="1" as="geometry">
            <mxPoint x="632.4999999999998" y="238.86571428571443" as="targetPoint" />
            <Array as="points">
              <mxPoint x="632.5" y="238.57999999999998" />
            </Array>
          </mxGeometry>
        </mxCell>
        <mxCell id="9" value="&lt;font color=&quot;#000000&quot; style=&quot;font-size: 26px; background-color: rgb(255, 255, 255);&quot;&gt;X&lt;/font&gt;" style="ellipse;whiteSpace=wrap;html=1;aspect=fixed;strokeColor=#000000;fillColor=#FFFFFF;" parent="1" vertex="1">
          <mxGeometry x="472.5" y="218.57999999999998" width="40" height="40" as="geometry" />
        </mxCell>
        <mxCell id="14" value="" style="endArrow=classic;html=1;fontSize=26;strokeColor=#000000;" parent="1" edge="1">
          <mxGeometry width="50" height="50" relative="1" as="geometry">
            <mxPoint x="412.5" y="238.57999999999998" as="sourcePoint" />
            <mxPoint x="492.5" y="218.57999999999998" as="targetPoint" />
            <Array as="points">
              <mxPoint x="412.5" y="198.57999999999998" />
              <mxPoint x="492.5" y="198.57999999999998" />
            </Array>
          </mxGeometry>
        </mxCell>
        <mxCell id="15" style="edgeStyle=none;html=1;entryX=0;entryY=0.5;entryDx=0;entryDy=0;fontSize=26;strokeColor=#000000;" parent="1" source="16" target="17" edge="1">
          <mxGeometry relative="1" as="geometry" />
        </mxCell>
        <mxCell id="16" value="&lt;font style=&quot;font-size: 26px;&quot; color=&quot;#000000&quot;&gt;UR(n)&lt;/font&gt;" style="rounded=0;whiteSpace=wrap;html=1;strokeColor=#000000;fillColor=#FFFFFF;" parent="1" vertex="1">
          <mxGeometry x="62.5" y="48.58000000000001" width="120" height="60" as="geometry" />
        </mxCell>
        <mxCell id="148" style="edgeStyle=none;html=1;exitX=1;exitY=0.5;exitDx=0;exitDy=0;strokeColor=#000000;fontColor=#000000;entryX=0;entryY=0.5;entryDx=0;entryDy=0;" parent="1" source="17" edge="1">
          <mxGeometry relative="1" as="geometry">
            <mxPoint x="622.5" y="78.58000000000001" as="targetPoint" />
          </mxGeometry>
        </mxCell>
        <mxCell id="17" value="&lt;font color=&quot;#000000&quot; style=&quot;font-size: 26px;&quot;&gt;X&lt;/font&gt;" style="ellipse;whiteSpace=wrap;html=1;aspect=fixed;fillColor=#FFFFFF;strokeColor=#000000;" parent="1" vertex="1">
          <mxGeometry x="472.5" y="58.58000000000001" width="40" height="40" as="geometry" />
        </mxCell>
        <mxCell id="20" value="" style="endArrow=classic;html=1;fontSize=26;entryX=0.5;entryY=0;entryDx=0;entryDy=0;strokeColor=#000000;" parent="1" target="17" edge="1">
          <mxGeometry width="50" height="50" relative="1" as="geometry">
            <mxPoint x="412.5" y="78.58000000000001" as="sourcePoint" />
            <mxPoint x="632.5" y="58.58000000000001" as="targetPoint" />
            <Array as="points">
              <mxPoint x="412.5" y="38.58000000000001" />
              <mxPoint x="492.5" y="38.58000000000001" />
            </Array>
          </mxGeometry>
        </mxCell>
        <mxCell id="45" style="edgeStyle=none;html=1;exitX=0.5;exitY=0;exitDx=0;exitDy=0;entryX=0.5;entryY=1;entryDx=0;entryDy=0;strokeColor=#000000;" parent="1" source="36" edge="1">
          <mxGeometry relative="1" as="geometry">
            <mxPoint x="482.4999999999998" y="378.58" as="targetPoint" />
          </mxGeometry>
        </mxCell>
        <mxCell id="36" value="&lt;span style=&quot;background-color: rgb(255, 255, 255);&quot;&gt;&lt;font style=&quot;&quot; color=&quot;#000000&quot;&gt;&lt;span style=&quot;font-size: 26px;&quot;&gt;C&lt;/span&gt;&lt;span style=&quot;font-size: 18.0556px;&quot;&gt;&lt;sub&gt;1&lt;/sub&gt;&lt;/span&gt;&lt;/font&gt;&lt;/span&gt;" style="ellipse;whiteSpace=wrap;html=1;aspect=fixed;strokeColor=#000000;fillColor=#FFFFFF;" parent="1" vertex="1">
          <mxGeometry x="462.5" y="398.58000000000004" width="40" height="40" as="geometry" />
        </mxCell>
        <mxCell id="uXnud2EJCDOm0gtdYonn-376" style="edgeStyle=orthogonalEdgeStyle;rounded=0;orthogonalLoop=1;jettySize=auto;html=1;exitX=1;exitY=0.5;exitDx=0;exitDy=0;entryX=0.5;entryY=0;entryDx=0;entryDy=0;" edge="1" parent="1" source="104" target="uXnud2EJCDOm0gtdYonn-269">
          <mxGeometry relative="1" as="geometry" />
        </mxCell>
        <mxCell id="104" value="&lt;font color=&quot;#000000&quot; style=&quot;font-size: 26px; background-color: rgb(255, 255, 255);&quot;&gt;X&lt;/font&gt;" style="ellipse;whiteSpace=wrap;html=1;aspect=fixed;strokeColor=#000000;fillColor=#FFFFFF;" parent="1" vertex="1">
          <mxGeometry x="462.5" y="338.58" width="40" height="40" as="geometry" />
        </mxCell>
        <mxCell id="143" value="" style="endArrow=classic;html=1;strokeColor=#000000;entryX=0.5;entryY=0;entryDx=0;entryDy=0;" parent="1" target="144" edge="1">
          <mxGeometry width="50" height="50" relative="1" as="geometry">
            <mxPoint x="262.5" y="78.58000000000001" as="sourcePoint" />
            <mxPoint x="272.5" y="308.58" as="targetPoint" />
            <Array as="points" />
          </mxGeometry>
        </mxCell>
        <mxCell id="146" style="edgeStyle=none;html=1;entryX=0;entryY=0.5;entryDx=0;entryDy=0;strokeColor=#000000;fontColor=#000000;" parent="1" source="144" target="104" edge="1">
          <mxGeometry relative="1" as="geometry" />
        </mxCell>
        <mxCell id="144" value="&lt;font style=&quot;font-size: 26px;&quot; color=&quot;#000000&quot;&gt;Ux(n)&lt;/font&gt;&lt;font style=&quot;font-size: 21.6667px;&quot; color=&quot;#000000&quot;&gt;&lt;sup&gt;0&lt;/sup&gt;&lt;/font&gt;" style="rounded=0;whiteSpace=wrap;html=1;fillColor=#FFFFFF;strokeColor=#000000;" parent="1" vertex="1">
          <mxGeometry x="202.50000000000003" y="328.58" width="120" height="60" as="geometry" />
        </mxCell>
        <mxCell id="151" value="" style="endArrow=none;dashed=1;html=1;dashPattern=1 3;strokeWidth=2;strokeColor=#000000;fontColor=#000000;" parent="1" edge="1">
          <mxGeometry width="50" height="50" relative="1" as="geometry">
            <mxPoint x="620" y="820" as="sourcePoint" />
            <mxPoint x="622.5" y="8.580000000000013" as="targetPoint" />
          </mxGeometry>
        </mxCell>
        <mxCell id="154" value="" style="endArrow=none;dashed=1;html=1;dashPattern=1 3;strokeWidth=2;strokeColor=#000000;fontColor=#000000;" parent="1" edge="1">
          <mxGeometry width="50" height="50" relative="1" as="geometry">
            <mxPoint x="60" y="810" as="sourcePoint" />
            <mxPoint x="60" y="7.670000000000012" as="targetPoint" />
          </mxGeometry>
        </mxCell>
        <mxCell id="uXnud2EJCDOm0gtdYonn-156" value="" style="endArrow=none;html=1;strokeColor=#000000;fontColor=#000000;" edge="1" parent="1">
          <mxGeometry width="50" height="50" relative="1" as="geometry">
            <mxPoint x="622.5" y="8.580000000000013" as="sourcePoint" />
            <mxPoint x="62.5" y="8.580000000000013" as="targetPoint" />
          </mxGeometry>
        </mxCell>
        <mxCell id="uXnud2EJCDOm0gtdYonn-157" value="Periodo do Clock" style="edgeLabel;html=1;align=center;verticalAlign=middle;resizable=0;points=[];fontColor=#000000;" vertex="1" connectable="0" parent="uXnud2EJCDOm0gtdYonn-156">
          <mxGeometry x="0.2381" y="2" relative="1" as="geometry">
            <mxPoint x="66" as="offset" />
          </mxGeometry>
        </mxCell>
        <mxCell id="uXnud2EJCDOm0gtdYonn-165" style="edgeStyle=none;html=1;entryX=0;entryY=0.5;entryDx=0;entryDy=0;fontSize=26;strokeColor=#000000;" edge="1" parent="1" source="uXnud2EJCDOm0gtdYonn-166" target="uXnud2EJCDOm0gtdYonn-168">
          <mxGeometry relative="1" as="geometry" />
        </mxCell>
        <mxCell id="uXnud2EJCDOm0gtdYonn-166" value="&lt;font style=&quot;font-size: 26px;&quot; color=&quot;#000000&quot;&gt;(UI(n))&lt;sup&gt;2&lt;/sup&gt;&lt;/font&gt;" style="rounded=0;whiteSpace=wrap;html=1;fillColor=#FFFFFF;strokeColor=#000000;" vertex="1" parent="1">
          <mxGeometry x="623.83" y="207.90999999999997" width="120" height="60" as="geometry" />
        </mxCell>
        <mxCell id="uXnud2EJCDOm0gtdYonn-167" style="edgeStyle=none;html=1;exitX=1;exitY=0.5;exitDx=0;exitDy=0;strokeColor=#000000;fontColor=#000000;" edge="1" parent="1" source="uXnud2EJCDOm0gtdYonn-168">
          <mxGeometry relative="1" as="geometry">
            <mxPoint x="1193.83" y="238.19571428571442" as="targetPoint" />
            <Array as="points">
              <mxPoint x="1193.83" y="237.90999999999997" />
            </Array>
          </mxGeometry>
        </mxCell>
        <mxCell id="uXnud2EJCDOm0gtdYonn-168" value="&lt;font color=&quot;#000000&quot; style=&quot;font-size: 26px; background-color: rgb(255, 255, 255);&quot;&gt;X&lt;/font&gt;" style="ellipse;whiteSpace=wrap;html=1;aspect=fixed;strokeColor=#000000;fillColor=#FFFFFF;" vertex="1" parent="1">
          <mxGeometry x="1033.83" y="217.90999999999997" width="40" height="40" as="geometry" />
        </mxCell>
        <mxCell id="uXnud2EJCDOm0gtdYonn-169" value="" style="endArrow=classic;html=1;fontSize=26;strokeColor=#000000;" edge="1" parent="1">
          <mxGeometry width="50" height="50" relative="1" as="geometry">
            <mxPoint x="973.83" y="237.90999999999997" as="sourcePoint" />
            <mxPoint x="1053.83" y="217.90999999999997" as="targetPoint" />
            <Array as="points">
              <mxPoint x="973.83" y="197.90999999999997" />
              <mxPoint x="1053.83" y="197.90999999999997" />
            </Array>
          </mxGeometry>
        </mxCell>
        <mxCell id="uXnud2EJCDOm0gtdYonn-170" style="edgeStyle=none;html=1;entryX=0;entryY=0.5;entryDx=0;entryDy=0;fontSize=26;strokeColor=#000000;" edge="1" parent="1" source="uXnud2EJCDOm0gtdYonn-171" target="uXnud2EJCDOm0gtdYonn-173">
          <mxGeometry relative="1" as="geometry" />
        </mxCell>
        <mxCell id="uXnud2EJCDOm0gtdYonn-171" value="&lt;font style=&quot;font-size: 26px;&quot; color=&quot;#000000&quot;&gt;(UR(n))&lt;sup&gt;2&lt;/sup&gt;&lt;/font&gt;" style="rounded=0;whiteSpace=wrap;html=1;strokeColor=#000000;fillColor=#FFFFFF;" vertex="1" parent="1">
          <mxGeometry x="623.83" y="47.910000000000025" width="120" height="60" as="geometry" />
        </mxCell>
        <mxCell id="uXnud2EJCDOm0gtdYonn-172" style="edgeStyle=none;html=1;exitX=1;exitY=0.5;exitDx=0;exitDy=0;strokeColor=#000000;fontColor=#000000;entryX=0;entryY=0.5;entryDx=0;entryDy=0;" edge="1" parent="1" source="uXnud2EJCDOm0gtdYonn-173">
          <mxGeometry relative="1" as="geometry">
            <mxPoint x="1183.83" y="77.91000000000003" as="targetPoint" />
          </mxGeometry>
        </mxCell>
        <mxCell id="uXnud2EJCDOm0gtdYonn-173" value="&lt;font color=&quot;#000000&quot; style=&quot;font-size: 26px;&quot;&gt;X&lt;/font&gt;" style="ellipse;whiteSpace=wrap;html=1;aspect=fixed;fillColor=#FFFFFF;strokeColor=#000000;" vertex="1" parent="1">
          <mxGeometry x="1033.83" y="57.910000000000025" width="40" height="40" as="geometry" />
        </mxCell>
        <mxCell id="uXnud2EJCDOm0gtdYonn-174" value="" style="endArrow=classic;html=1;fontSize=26;entryX=0.5;entryY=0;entryDx=0;entryDy=0;strokeColor=#000000;" edge="1" parent="1" target="uXnud2EJCDOm0gtdYonn-173">
          <mxGeometry width="50" height="50" relative="1" as="geometry">
            <mxPoint x="973.83" y="77.91000000000003" as="sourcePoint" />
            <mxPoint x="1193.83" y="57.910000000000025" as="targetPoint" />
            <Array as="points">
              <mxPoint x="973.83" y="37.910000000000025" />
              <mxPoint x="1053.83" y="37.910000000000025" />
            </Array>
          </mxGeometry>
        </mxCell>
        <mxCell id="uXnud2EJCDOm0gtdYonn-175" style="edgeStyle=none;html=1;exitX=0.5;exitY=0;exitDx=0;exitDy=0;entryX=0.5;entryY=1;entryDx=0;entryDy=0;strokeColor=#000000;" edge="1" parent="1" source="uXnud2EJCDOm0gtdYonn-176">
          <mxGeometry relative="1" as="geometry">
            <mxPoint x="1043.83" y="377.90999999999997" as="targetPoint" />
          </mxGeometry>
        </mxCell>
        <mxCell id="uXnud2EJCDOm0gtdYonn-176" value="&lt;span style=&quot;background-color: rgb(255, 255, 255);&quot;&gt;&lt;font style=&quot;&quot; color=&quot;#000000&quot;&gt;&lt;span style=&quot;font-size: 26px;&quot;&gt;C&lt;/span&gt;&lt;span style=&quot;font-size: 15.0463px;&quot;&gt;&lt;sub&gt;2&lt;/sub&gt;&lt;/span&gt;&lt;/font&gt;&lt;/span&gt;" style="ellipse;whiteSpace=wrap;html=1;aspect=fixed;strokeColor=#000000;fillColor=#FFFFFF;" vertex="1" parent="1">
          <mxGeometry x="1023.8299999999998" y="397.9100000000001" width="40" height="40" as="geometry" />
        </mxCell>
        <mxCell id="uXnud2EJCDOm0gtdYonn-262" style="edgeStyle=orthogonalEdgeStyle;rounded=0;orthogonalLoop=1;jettySize=auto;html=1;exitX=1;exitY=0.5;exitDx=0;exitDy=0;entryX=0.5;entryY=0;entryDx=0;entryDy=0;" edge="1" parent="1" source="uXnud2EJCDOm0gtdYonn-177" target="uXnud2EJCDOm0gtdYonn-271">
          <mxGeometry relative="1" as="geometry">
            <mxPoint x="1084.17" y="517" as="targetPoint" />
            <Array as="points">
              <mxPoint x="1190" y="358" />
              <mxPoint x="1190" y="497" />
            </Array>
          </mxGeometry>
        </mxCell>
        <mxCell id="uXnud2EJCDOm0gtdYonn-177" value="&lt;font color=&quot;#000000&quot; style=&quot;font-size: 26px; background-color: rgb(255, 255, 255);&quot;&gt;X&lt;/font&gt;" style="ellipse;whiteSpace=wrap;html=1;aspect=fixed;strokeColor=#000000;fillColor=#FFFFFF;" vertex="1" parent="1">
          <mxGeometry x="1023.8299999999998" y="337.90999999999997" width="40" height="40" as="geometry" />
        </mxCell>
        <mxCell id="uXnud2EJCDOm0gtdYonn-178" value="" style="endArrow=classic;html=1;strokeColor=#000000;entryX=0.5;entryY=0;entryDx=0;entryDy=0;" edge="1" parent="1" target="uXnud2EJCDOm0gtdYonn-180">
          <mxGeometry width="50" height="50" relative="1" as="geometry">
            <mxPoint x="823.83" y="77.91000000000003" as="sourcePoint" />
            <mxPoint x="833.83" y="307.90999999999997" as="targetPoint" />
            <Array as="points" />
          </mxGeometry>
        </mxCell>
        <mxCell id="uXnud2EJCDOm0gtdYonn-179" style="edgeStyle=none;html=1;entryX=0;entryY=0.5;entryDx=0;entryDy=0;strokeColor=#000000;fontColor=#000000;" edge="1" parent="1" source="uXnud2EJCDOm0gtdYonn-180" target="uXnud2EJCDOm0gtdYonn-177">
          <mxGeometry relative="1" as="geometry" />
        </mxCell>
        <mxCell id="uXnud2EJCDOm0gtdYonn-180" value="&lt;font style=&quot;font-size: 26px;&quot; color=&quot;#000000&quot;&gt;Ux(n)&lt;/font&gt;&lt;font style=&quot;font-size: 18.0556px;&quot; color=&quot;#000000&quot;&gt;&lt;sup&gt;2&lt;/sup&gt;&lt;/font&gt;" style="rounded=0;whiteSpace=wrap;html=1;fillColor=#FFFFFF;strokeColor=#000000;" vertex="1" parent="1">
          <mxGeometry x="763.83" y="327.90999999999997" width="120" height="60" as="geometry" />
        </mxCell>
        <mxCell id="uXnud2EJCDOm0gtdYonn-181" value="" style="endArrow=none;dashed=1;html=1;dashPattern=1 3;strokeWidth=2;strokeColor=#000000;fontColor=#000000;" edge="1" parent="1" source="uXnud2EJCDOm0gtdYonn-271">
          <mxGeometry width="50" height="50" relative="1" as="geometry">
            <mxPoint x="1181.17" y="767" as="sourcePoint" />
            <mxPoint x="1183.83" y="7.910000000000025" as="targetPoint" />
          </mxGeometry>
        </mxCell>
        <mxCell id="uXnud2EJCDOm0gtdYonn-185" value="" style="endArrow=none;html=1;strokeColor=#000000;fontColor=#000000;" edge="1" parent="1">
          <mxGeometry width="50" height="50" relative="1" as="geometry">
            <mxPoint x="1183.83" y="7.910000000000025" as="sourcePoint" />
            <mxPoint x="623.83" y="7.910000000000025" as="targetPoint" />
          </mxGeometry>
        </mxCell>
        <mxCell id="uXnud2EJCDOm0gtdYonn-186" value="Periodo do Clock" style="edgeLabel;html=1;align=center;verticalAlign=middle;resizable=0;points=[];fontColor=#000000;" vertex="1" connectable="0" parent="uXnud2EJCDOm0gtdYonn-185">
          <mxGeometry x="0.2381" y="2" relative="1" as="geometry">
            <mxPoint x="66" as="offset" />
          </mxGeometry>
        </mxCell>
        <mxCell id="uXnud2EJCDOm0gtdYonn-187" value="" style="endArrow=none;dashed=1;html=1;dashPattern=1 3;strokeWidth=2;rounded=0;" edge="1" parent="1">
          <mxGeometry width="50" height="50" relative="1" as="geometry">
            <mxPoint x="1182.5" y="238.57999999999998" as="sourcePoint" />
            <mxPoint x="1322.5" y="238.57999999999998" as="targetPoint" />
          </mxGeometry>
        </mxCell>
        <mxCell id="uXnud2EJCDOm0gtdYonn-380" style="edgeStyle=orthogonalEdgeStyle;rounded=0;orthogonalLoop=1;jettySize=auto;html=1;exitX=1;exitY=0.5;exitDx=0;exitDy=0;entryX=0.5;entryY=0;entryDx=0;entryDy=0;" edge="1" parent="1" source="uXnud2EJCDOm0gtdYonn-235" target="uXnud2EJCDOm0gtdYonn-249">
          <mxGeometry relative="1" as="geometry" />
        </mxCell>
        <mxCell id="uXnud2EJCDOm0gtdYonn-235" value="&lt;font style=&quot;font-size: 26px;&quot; color=&quot;#000000&quot;&gt;UI(n)&lt;sup&gt;P&lt;/sup&gt;&lt;/font&gt;" style="rounded=0;whiteSpace=wrap;html=1;fillColor=#FFFFFF;strokeColor=#000000;" vertex="1" parent="1">
          <mxGeometry x="1341.1699999999998" y="207.66999999999996" width="120" height="60" as="geometry" />
        </mxCell>
        <mxCell id="uXnud2EJCDOm0gtdYonn-244" style="edgeStyle=none;html=1;exitX=0.5;exitY=0;exitDx=0;exitDy=0;entryX=0.5;entryY=1;entryDx=0;entryDy=0;strokeColor=#000000;" edge="1" parent="1" source="uXnud2EJCDOm0gtdYonn-245">
          <mxGeometry relative="1" as="geometry">
            <mxPoint x="1753.8299999999997" y="377.66999999999996" as="targetPoint" />
          </mxGeometry>
        </mxCell>
        <mxCell id="uXnud2EJCDOm0gtdYonn-245" value="&lt;span style=&quot;background-color: rgb(255, 255, 255);&quot;&gt;&lt;font style=&quot;&quot; color=&quot;#000000&quot;&gt;&lt;span style=&quot;font-size: 26px;&quot;&gt;C&lt;/span&gt;&lt;span style=&quot;font-size: 21.6667px;&quot;&gt;&lt;sub&gt;P&lt;/sub&gt;&lt;/span&gt;&lt;/font&gt;&lt;/span&gt;" style="ellipse;whiteSpace=wrap;html=1;aspect=fixed;strokeColor=#000000;fillColor=#FFFFFF;" vertex="1" parent="1">
          <mxGeometry x="1733.83" y="397.6700000000001" width="40" height="40" as="geometry" />
        </mxCell>
        <mxCell id="uXnud2EJCDOm0gtdYonn-325" style="edgeStyle=orthogonalEdgeStyle;rounded=0;orthogonalLoop=1;jettySize=auto;html=1;entryX=0.5;entryY=0;entryDx=0;entryDy=0;" edge="1" parent="1" source="uXnud2EJCDOm0gtdYonn-246" target="uXnud2EJCDOm0gtdYonn-314">
          <mxGeometry relative="1" as="geometry" />
        </mxCell>
        <mxCell id="uXnud2EJCDOm0gtdYonn-246" value="&lt;font color=&quot;#000000&quot; style=&quot;font-size: 26px; background-color: rgb(255, 255, 255);&quot;&gt;X&lt;/font&gt;" style="ellipse;whiteSpace=wrap;html=1;aspect=fixed;strokeColor=#000000;fillColor=#FFFFFF;" vertex="1" parent="1">
          <mxGeometry x="1733.83" y="337.66999999999996" width="40" height="40" as="geometry" />
        </mxCell>
        <mxCell id="uXnud2EJCDOm0gtdYonn-247" value="" style="endArrow=classic;html=1;strokeColor=#000000;entryX=0.5;entryY=0;entryDx=0;entryDy=0;exitX=1;exitY=0.5;exitDx=0;exitDy=0;" edge="1" parent="1" target="uXnud2EJCDOm0gtdYonn-249" source="uXnud2EJCDOm0gtdYonn-257">
          <mxGeometry width="50" height="50" relative="1" as="geometry">
            <mxPoint x="1533.83" y="77.67000000000002" as="sourcePoint" />
            <mxPoint x="1543.83" y="307.66999999999996" as="targetPoint" />
            <Array as="points">
              <mxPoint x="1534" y="78" />
            </Array>
          </mxGeometry>
        </mxCell>
        <mxCell id="uXnud2EJCDOm0gtdYonn-248" style="edgeStyle=none;html=1;entryX=0;entryY=0.5;entryDx=0;entryDy=0;strokeColor=#000000;fontColor=#000000;" edge="1" parent="1" source="uXnud2EJCDOm0gtdYonn-249" target="uXnud2EJCDOm0gtdYonn-246">
          <mxGeometry relative="1" as="geometry" />
        </mxCell>
        <mxCell id="uXnud2EJCDOm0gtdYonn-249" value="&lt;font style=&quot;font-size: 26px;&quot; color=&quot;#000000&quot;&gt;Ux(n)&lt;sup&gt;P&lt;/sup&gt;&lt;/font&gt;" style="rounded=0;whiteSpace=wrap;html=1;fillColor=#FFFFFF;strokeColor=#000000;" vertex="1" parent="1">
          <mxGeometry x="1473.83" y="327.66999999999996" width="120" height="60" as="geometry" />
        </mxCell>
        <mxCell id="uXnud2EJCDOm0gtdYonn-250" value="" style="endArrow=none;dashed=1;html=1;dashPattern=1 3;strokeWidth=2;strokeColor=#000000;fontColor=#000000;" edge="1" parent="1">
          <mxGeometry width="50" height="50" relative="1" as="geometry">
            <mxPoint x="1900" y="820" as="sourcePoint" />
            <mxPoint x="1900" y="10" as="targetPoint" />
          </mxGeometry>
        </mxCell>
        <mxCell id="uXnud2EJCDOm0gtdYonn-251" value="" style="endArrow=none;dashed=1;html=1;dashPattern=1 3;strokeWidth=2;strokeColor=#000000;fontColor=#000000;" edge="1" parent="1">
          <mxGeometry width="50" height="50" relative="1" as="geometry">
            <mxPoint x="1341.17" y="817.67" as="sourcePoint" />
            <mxPoint x="1341" y="10" as="targetPoint" />
          </mxGeometry>
        </mxCell>
        <mxCell id="uXnud2EJCDOm0gtdYonn-254" value="" style="endArrow=none;html=1;strokeColor=#000000;fontColor=#000000;" edge="1" parent="1">
          <mxGeometry width="50" height="50" relative="1" as="geometry">
            <mxPoint x="1901.17" y="7.670000000000016" as="sourcePoint" />
            <mxPoint x="1341.1699999999998" y="7.670000000000016" as="targetPoint" />
          </mxGeometry>
        </mxCell>
        <mxCell id="uXnud2EJCDOm0gtdYonn-255" value="Periodo do Clock" style="edgeLabel;html=1;align=center;verticalAlign=middle;resizable=0;points=[];fontColor=#000000;" vertex="1" connectable="0" parent="uXnud2EJCDOm0gtdYonn-254">
          <mxGeometry x="0.2381" y="2" relative="1" as="geometry">
            <mxPoint x="66" as="offset" />
          </mxGeometry>
        </mxCell>
        <mxCell id="uXnud2EJCDOm0gtdYonn-257" value="&lt;font style=&quot;font-size: 26px;&quot; color=&quot;#000000&quot;&gt;UI(n)&lt;sup&gt;P&lt;/sup&gt;&lt;/font&gt;" style="rounded=0;whiteSpace=wrap;html=1;fillColor=#FFFFFF;strokeColor=#000000;" vertex="1" parent="1">
          <mxGeometry x="1341.1699999999998" y="47.66999999999999" width="120" height="60" as="geometry" />
        </mxCell>
        <mxCell id="uXnud2EJCDOm0gtdYonn-264" value="&lt;span style=&quot;background-color: rgb(255, 255, 255);&quot;&gt;&lt;font style=&quot;&quot; color=&quot;#000000&quot;&gt;&lt;span style=&quot;font-size: 26px;&quot;&gt;C&lt;/span&gt;&lt;span style=&quot;font-size: 18.0556px;&quot;&gt;P/2+1&lt;/span&gt;&lt;/font&gt;&lt;/span&gt;" style="ellipse;whiteSpace=wrap;html=1;aspect=fixed;strokeColor=#000000;fillColor=#FFFFFF;" vertex="1" parent="1">
          <mxGeometry x="462.5" y="527" width="38.67" height="38.67" as="geometry" />
        </mxCell>
        <mxCell id="uXnud2EJCDOm0gtdYonn-270" style="edgeStyle=orthogonalEdgeStyle;rounded=0;orthogonalLoop=1;jettySize=auto;html=1;entryX=0.5;entryY=1;entryDx=0;entryDy=0;" edge="1" parent="1" source="uXnud2EJCDOm0gtdYonn-311" target="uXnud2EJCDOm0gtdYonn-269">
          <mxGeometry relative="1" as="geometry">
            <mxPoint x="751.17" y="617" as="targetPoint" />
          </mxGeometry>
        </mxCell>
        <mxCell id="uXnud2EJCDOm0gtdYonn-375" style="edgeStyle=orthogonalEdgeStyle;rounded=0;orthogonalLoop=1;jettySize=auto;html=1;exitX=0.5;exitY=0;exitDx=0;exitDy=0;entryX=0.5;entryY=1;entryDx=0;entryDy=0;" edge="1" parent="1" source="uXnud2EJCDOm0gtdYonn-265" target="uXnud2EJCDOm0gtdYonn-264">
          <mxGeometry relative="1" as="geometry" />
        </mxCell>
        <mxCell id="uXnud2EJCDOm0gtdYonn-265" value="&lt;font color=&quot;#000000&quot; style=&quot;font-size: 26px; background-color: rgb(255, 255, 255);&quot;&gt;X&lt;/font&gt;" style="ellipse;whiteSpace=wrap;html=1;aspect=fixed;strokeColor=#000000;fillColor=#FFFFFF;" vertex="1" parent="1">
          <mxGeometry x="462.5" y="597" width="40" height="40" as="geometry" />
        </mxCell>
        <mxCell id="uXnud2EJCDOm0gtdYonn-266" style="edgeStyle=none;html=1;entryX=0;entryY=0.5;entryDx=0;entryDy=0;strokeColor=#000000;fontColor=#000000;" edge="1" parent="1" source="uXnud2EJCDOm0gtdYonn-267" target="uXnud2EJCDOm0gtdYonn-265">
          <mxGeometry relative="1" as="geometry" />
        </mxCell>
        <mxCell id="uXnud2EJCDOm0gtdYonn-267" value="&lt;font style=&quot;font-size: 26px;&quot; color=&quot;#000000&quot;&gt;Ux(n-1)&lt;/font&gt;&lt;font style=&quot;font-size: 21.6667px;&quot; color=&quot;#000000&quot;&gt;&lt;sup&gt;0&lt;/sup&gt;&lt;/font&gt;" style="rounded=0;whiteSpace=wrap;html=1;fillColor=#FFFFFF;strokeColor=#000000;" vertex="1" parent="1">
          <mxGeometry x="202.50000000000003" y="587" width="120" height="60" as="geometry" />
        </mxCell>
        <mxCell id="uXnud2EJCDOm0gtdYonn-273" style="edgeStyle=orthogonalEdgeStyle;rounded=0;orthogonalLoop=1;jettySize=auto;html=1;exitX=1;exitY=0.5;exitDx=0;exitDy=0;entryX=0;entryY=0.5;entryDx=0;entryDy=0;" edge="1" parent="1" source="uXnud2EJCDOm0gtdYonn-269" target="uXnud2EJCDOm0gtdYonn-271">
          <mxGeometry relative="1" as="geometry" />
        </mxCell>
        <mxCell id="uXnud2EJCDOm0gtdYonn-269" value="&lt;font color=&quot;#000000&quot; style=&quot;font-size: 26px; background-color: rgb(255, 255, 255);&quot;&gt;+&lt;/font&gt;" style="ellipse;whiteSpace=wrap;html=1;aspect=fixed;strokeColor=#000000;fillColor=#FFFFFF;" vertex="1" parent="1">
          <mxGeometry x="599.9999999999998" y="497" width="40" height="40" as="geometry" />
        </mxCell>
        <mxCell id="uXnud2EJCDOm0gtdYonn-286" style="edgeStyle=none;html=1;exitX=0.5;exitY=0;exitDx=0;exitDy=0;entryX=0.5;entryY=0;entryDx=0;entryDy=0;strokeColor=#000000;" edge="1" parent="1" source="uXnud2EJCDOm0gtdYonn-287" target="uXnud2EJCDOm0gtdYonn-290">
          <mxGeometry relative="1" as="geometry">
            <mxPoint x="1001.1699999999997" y="667" as="targetPoint" />
          </mxGeometry>
        </mxCell>
        <mxCell id="uXnud2EJCDOm0gtdYonn-287" value="&lt;span style=&quot;background-color: rgb(255, 255, 255);&quot;&gt;&lt;font style=&quot;&quot; color=&quot;#000000&quot;&gt;&lt;span style=&quot;font-size: 26px;&quot;&gt;C&lt;/span&gt;&lt;span style=&quot;font-size: 21.6667px;&quot;&gt;&lt;sub&gt;P+2&lt;/sub&gt;&lt;/span&gt;&lt;/font&gt;&lt;/span&gt;" style="ellipse;whiteSpace=wrap;html=1;aspect=fixed;strokeColor=#000000;fillColor=#FFFFFF;" vertex="1" parent="1">
          <mxGeometry x="1001.17" y="527" width="40" height="40" as="geometry" />
        </mxCell>
        <mxCell id="uXnud2EJCDOm0gtdYonn-288" value="" style="edgeStyle=orthogonalEdgeStyle;rounded=0;orthogonalLoop=1;jettySize=auto;html=1;" edge="1" parent="1" source="uXnud2EJCDOm0gtdYonn-290" target="uXnud2EJCDOm0gtdYonn-287">
          <mxGeometry relative="1" as="geometry" />
        </mxCell>
        <mxCell id="uXnud2EJCDOm0gtdYonn-289" style="edgeStyle=orthogonalEdgeStyle;rounded=0;orthogonalLoop=1;jettySize=auto;html=1;entryX=0;entryY=0.5;entryDx=0;entryDy=0;" edge="1" parent="1" source="uXnud2EJCDOm0gtdYonn-290" target="uXnud2EJCDOm0gtdYonn-344">
          <mxGeometry relative="1" as="geometry">
            <mxPoint x="1089.8400000000001" y="537" as="targetPoint" />
          </mxGeometry>
        </mxCell>
        <mxCell id="uXnud2EJCDOm0gtdYonn-290" value="&lt;font color=&quot;#000000&quot; style=&quot;font-size: 26px; background-color: rgb(255, 255, 255);&quot;&gt;X&lt;/font&gt;" style="ellipse;whiteSpace=wrap;html=1;aspect=fixed;strokeColor=#000000;fillColor=#FFFFFF;" vertex="1" parent="1">
          <mxGeometry x="1001.17" y="597" width="40" height="40" as="geometry" />
        </mxCell>
        <mxCell id="uXnud2EJCDOm0gtdYonn-291" style="edgeStyle=none;html=1;entryX=0;entryY=0.5;entryDx=0;entryDy=0;strokeColor=#000000;fontColor=#000000;" edge="1" parent="1" source="uXnud2EJCDOm0gtdYonn-292" target="uXnud2EJCDOm0gtdYonn-290">
          <mxGeometry relative="1" as="geometry" />
        </mxCell>
        <mxCell id="uXnud2EJCDOm0gtdYonn-292" value="&lt;font style=&quot;font-size: 26px;&quot; color=&quot;#000000&quot;&gt;Ux(n-1)&lt;/font&gt;&lt;font style=&quot;font-size: 21.6667px;&quot; color=&quot;#000000&quot;&gt;&lt;sup&gt;2&lt;/sup&gt;&lt;/font&gt;" style="rounded=0;whiteSpace=wrap;html=1;fillColor=#FFFFFF;strokeColor=#000000;" vertex="1" parent="1">
          <mxGeometry x="741.17" y="587" width="120" height="60" as="geometry" />
        </mxCell>
        <mxCell id="uXnud2EJCDOm0gtdYonn-294" value="" style="endArrow=none;dashed=1;html=1;dashPattern=1 3;strokeWidth=2;rounded=0;" edge="1" parent="1" source="uXnud2EJCDOm0gtdYonn-323">
          <mxGeometry width="50" height="50" relative="1" as="geometry">
            <mxPoint x="1193.83" y="516" as="sourcePoint" />
            <mxPoint x="1333.83" y="516" as="targetPoint" />
          </mxGeometry>
        </mxCell>
        <mxCell id="uXnud2EJCDOm0gtdYonn-305" value="&lt;span style=&quot;background-color: rgb(255, 255, 255);&quot;&gt;&lt;font style=&quot;&quot; color=&quot;#000000&quot;&gt;&lt;span style=&quot;font-size: 26px;&quot;&gt;C&lt;/span&gt;&lt;span style=&quot;font-size: 18.0556px;&quot;&gt;&lt;sub&gt;N*P/2+1&lt;/sub&gt;&lt;/span&gt;&lt;/font&gt;&lt;/span&gt;" style="ellipse;whiteSpace=wrap;html=1;aspect=fixed;strokeColor=#000000;fillColor=#FFFFFF;" vertex="1" parent="1">
          <mxGeometry x="456.8399999999999" y="670" width="50" height="50" as="geometry" />
        </mxCell>
        <mxCell id="uXnud2EJCDOm0gtdYonn-371" style="edgeStyle=orthogonalEdgeStyle;rounded=0;orthogonalLoop=1;jettySize=auto;html=1;exitX=1;exitY=0.5;exitDx=0;exitDy=0;entryX=0;entryY=0.5;entryDx=0;entryDy=0;" edge="1" parent="1" source="uXnud2EJCDOm0gtdYonn-308" target="uXnud2EJCDOm0gtdYonn-364">
          <mxGeometry relative="1" as="geometry" />
        </mxCell>
        <mxCell id="uXnud2EJCDOm0gtdYonn-374" style="edgeStyle=orthogonalEdgeStyle;rounded=0;orthogonalLoop=1;jettySize=auto;html=1;exitX=0.5;exitY=0;exitDx=0;exitDy=0;entryX=0.5;entryY=1;entryDx=0;entryDy=0;" edge="1" parent="1" source="uXnud2EJCDOm0gtdYonn-308" target="uXnud2EJCDOm0gtdYonn-305">
          <mxGeometry relative="1" as="geometry" />
        </mxCell>
        <mxCell id="uXnud2EJCDOm0gtdYonn-308" value="&lt;font color=&quot;#000000&quot; style=&quot;font-size: 26px; background-color: rgb(255, 255, 255);&quot;&gt;X&lt;/font&gt;" style="ellipse;whiteSpace=wrap;html=1;aspect=fixed;strokeColor=#000000;fillColor=#FFFFFF;" vertex="1" parent="1">
          <mxGeometry x="462.5" y="760" width="40" height="40" as="geometry" />
        </mxCell>
        <mxCell id="uXnud2EJCDOm0gtdYonn-309" style="edgeStyle=none;html=1;entryX=0;entryY=0.5;entryDx=0;entryDy=0;strokeColor=#000000;fontColor=#000000;" edge="1" parent="1" source="uXnud2EJCDOm0gtdYonn-310" target="uXnud2EJCDOm0gtdYonn-308">
          <mxGeometry relative="1" as="geometry" />
        </mxCell>
        <mxCell id="uXnud2EJCDOm0gtdYonn-310" value="&lt;font style=&quot;font-size: 26px;&quot; color=&quot;#000000&quot;&gt;Ux(n-N)&lt;/font&gt;&lt;font style=&quot;font-size: 21.6667px;&quot; color=&quot;#000000&quot;&gt;&lt;sup&gt;0&lt;/sup&gt;&lt;/font&gt;" style="rounded=0;whiteSpace=wrap;html=1;fillColor=#FFFFFF;strokeColor=#000000;" vertex="1" parent="1">
          <mxGeometry x="202.50000000000003" y="750" width="120" height="60" as="geometry" />
        </mxCell>
        <mxCell id="uXnud2EJCDOm0gtdYonn-312" value="" style="edgeStyle=orthogonalEdgeStyle;rounded=0;orthogonalLoop=1;jettySize=auto;html=1;entryX=0;entryY=0.5;entryDx=0;entryDy=0;" edge="1" parent="1" source="uXnud2EJCDOm0gtdYonn-265" target="uXnud2EJCDOm0gtdYonn-311">
          <mxGeometry relative="1" as="geometry">
            <mxPoint x="551.17" y="537" as="targetPoint" />
            <mxPoint x="502.16999999999996" y="617" as="sourcePoint" />
          </mxGeometry>
        </mxCell>
        <mxCell id="uXnud2EJCDOm0gtdYonn-311" value="&lt;font color=&quot;#000000&quot; style=&quot;font-size: 26px; background-color: rgb(255, 255, 255);&quot;&gt;+&lt;/font&gt;" style="ellipse;whiteSpace=wrap;html=1;aspect=fixed;strokeColor=#000000;fillColor=#FFFFFF;" vertex="1" parent="1">
          <mxGeometry x="599.9999999999998" y="597" width="40" height="40" as="geometry" />
        </mxCell>
        <mxCell id="uXnud2EJCDOm0gtdYonn-334" style="edgeStyle=orthogonalEdgeStyle;rounded=0;orthogonalLoop=1;jettySize=auto;html=1;entryX=0;entryY=0.5;entryDx=0;entryDy=0;exitX=1;exitY=0.5;exitDx=0;exitDy=0;" edge="1" parent="1" source="uXnud2EJCDOm0gtdYonn-314" target="uXnud2EJCDOm0gtdYonn-377">
          <mxGeometry relative="1" as="geometry">
            <mxPoint x="2100" y="517" as="targetPoint" />
            <mxPoint x="1980" y="517" as="sourcePoint" />
            <Array as="points" />
          </mxGeometry>
        </mxCell>
        <mxCell id="uXnud2EJCDOm0gtdYonn-315" style="edgeStyle=none;html=1;exitX=0.5;exitY=0;exitDx=0;exitDy=0;entryX=0.5;entryY=0;entryDx=0;entryDy=0;strokeColor=#000000;" edge="1" parent="1" source="uXnud2EJCDOm0gtdYonn-316" target="uXnud2EJCDOm0gtdYonn-319">
          <mxGeometry relative="1" as="geometry">
            <mxPoint x="1733.83" y="667" as="targetPoint" />
          </mxGeometry>
        </mxCell>
        <mxCell id="uXnud2EJCDOm0gtdYonn-316" value="&lt;span style=&quot;background-color: rgb(255, 255, 255);&quot;&gt;&lt;font style=&quot;&quot; color=&quot;#000000&quot;&gt;&lt;span style=&quot;font-size: 26px;&quot;&gt;C&lt;/span&gt;&lt;span style=&quot;font-size: 21.6667px;&quot;&gt;&lt;sub&gt;P*2&lt;/sub&gt;&lt;/span&gt;&lt;/font&gt;&lt;/span&gt;" style="ellipse;whiteSpace=wrap;html=1;aspect=fixed;strokeColor=#000000;fillColor=#FFFFFF;" vertex="1" parent="1">
          <mxGeometry x="1733.8300000000002" y="527" width="40" height="40" as="geometry" />
        </mxCell>
        <mxCell id="uXnud2EJCDOm0gtdYonn-317" value="" style="edgeStyle=orthogonalEdgeStyle;rounded=0;orthogonalLoop=1;jettySize=auto;html=1;" edge="1" parent="1" source="uXnud2EJCDOm0gtdYonn-319" target="uXnud2EJCDOm0gtdYonn-316">
          <mxGeometry relative="1" as="geometry" />
        </mxCell>
        <mxCell id="uXnud2EJCDOm0gtdYonn-318" style="edgeStyle=orthogonalEdgeStyle;rounded=0;orthogonalLoop=1;jettySize=auto;html=1;entryX=0;entryY=0.5;entryDx=0;entryDy=0;" edge="1" parent="1" source="uXnud2EJCDOm0gtdYonn-319" target="uXnud2EJCDOm0gtdYonn-353">
          <mxGeometry relative="1" as="geometry">
            <mxPoint x="1822.5000000000002" y="537" as="targetPoint" />
          </mxGeometry>
        </mxCell>
        <mxCell id="uXnud2EJCDOm0gtdYonn-319" value="&lt;font color=&quot;#000000&quot; style=&quot;font-size: 26px; background-color: rgb(255, 255, 255);&quot;&gt;X&lt;/font&gt;" style="ellipse;whiteSpace=wrap;html=1;aspect=fixed;strokeColor=#000000;fillColor=#FFFFFF;" vertex="1" parent="1">
          <mxGeometry x="1733.8300000000002" y="597" width="40" height="40" as="geometry" />
        </mxCell>
        <mxCell id="uXnud2EJCDOm0gtdYonn-320" style="edgeStyle=none;html=1;entryX=0;entryY=0.5;entryDx=0;entryDy=0;strokeColor=#000000;fontColor=#000000;" edge="1" parent="1" source="uXnud2EJCDOm0gtdYonn-321" target="uXnud2EJCDOm0gtdYonn-319">
          <mxGeometry relative="1" as="geometry" />
        </mxCell>
        <mxCell id="uXnud2EJCDOm0gtdYonn-321" value="&lt;font style=&quot;font-size: 26px;&quot; color=&quot;#000000&quot;&gt;Ux(n-1)&lt;/font&gt;&lt;font style=&quot;font-size: 21.6667px;&quot; color=&quot;#000000&quot;&gt;&lt;sup&gt;P&lt;/sup&gt;&lt;/font&gt;" style="rounded=0;whiteSpace=wrap;html=1;fillColor=#FFFFFF;strokeColor=#000000;" vertex="1" parent="1">
          <mxGeometry x="1473.8300000000002" y="587" width="120" height="60" as="geometry" />
        </mxCell>
        <mxCell id="uXnud2EJCDOm0gtdYonn-322" style="edgeStyle=orthogonalEdgeStyle;rounded=0;orthogonalLoop=1;jettySize=auto;html=1;exitX=1;exitY=0.5;exitDx=0;exitDy=0;entryX=0;entryY=0.5;entryDx=0;entryDy=0;" edge="1" parent="1" source="uXnud2EJCDOm0gtdYonn-323" target="uXnud2EJCDOm0gtdYonn-314">
          <mxGeometry relative="1" as="geometry">
            <mxPoint x="1863.8300000000004" y="517" as="targetPoint" />
            <Array as="points" />
          </mxGeometry>
        </mxCell>
        <mxCell id="uXnud2EJCDOm0gtdYonn-326" value="" style="endArrow=none;dashed=1;html=1;dashPattern=1 3;strokeWidth=2;rounded=0;" edge="1" parent="1" target="uXnud2EJCDOm0gtdYonn-323">
          <mxGeometry width="50" height="50" relative="1" as="geometry">
            <mxPoint x="1193.83" y="516" as="sourcePoint" />
            <mxPoint x="1333.83" y="516" as="targetPoint" />
          </mxGeometry>
        </mxCell>
        <mxCell id="uXnud2EJCDOm0gtdYonn-323" value="&lt;font color=&quot;#000000&quot; style=&quot;font-size: 26px; background-color: rgb(255, 255, 255);&quot;&gt;+&lt;/font&gt;" style="ellipse;whiteSpace=wrap;html=1;aspect=fixed;strokeColor=#000000;fillColor=#FFFFFF;" vertex="1" parent="1">
          <mxGeometry x="1321.1699999999998" y="497" width="40" height="40" as="geometry" />
        </mxCell>
        <mxCell id="uXnud2EJCDOm0gtdYonn-336" value="&lt;span style=&quot;background-color: rgb(255, 255, 255);&quot;&gt;&lt;font style=&quot;&quot; color=&quot;#000000&quot;&gt;&lt;span style=&quot;font-size: 26px;&quot;&gt;C&lt;/span&gt;&lt;span style=&quot;font-size: 18.0556px;&quot;&gt;&lt;sub&gt;N*P/2+2&lt;/sub&gt;&lt;/span&gt;&lt;/font&gt;&lt;/span&gt;" style="ellipse;whiteSpace=wrap;html=1;aspect=fixed;strokeColor=#000000;fillColor=#FFFFFF;" vertex="1" parent="1">
          <mxGeometry x="995.5099999999999" y="670" width="50" height="50" as="geometry" />
        </mxCell>
        <mxCell id="uXnud2EJCDOm0gtdYonn-361" style="edgeStyle=orthogonalEdgeStyle;rounded=0;orthogonalLoop=1;jettySize=auto;html=1;exitX=1;exitY=0.5;exitDx=0;exitDy=0;entryX=0;entryY=0.5;entryDx=0;entryDy=0;" edge="1" parent="1" source="uXnud2EJCDOm0gtdYonn-339" target="uXnud2EJCDOm0gtdYonn-362">
          <mxGeometry relative="1" as="geometry">
            <mxPoint x="1160" y="779.9090909090908" as="targetPoint" />
          </mxGeometry>
        </mxCell>
        <mxCell id="uXnud2EJCDOm0gtdYonn-373" style="edgeStyle=orthogonalEdgeStyle;rounded=0;orthogonalLoop=1;jettySize=auto;html=1;exitX=0.5;exitY=0;exitDx=0;exitDy=0;entryX=0.5;entryY=1;entryDx=0;entryDy=0;" edge="1" parent="1" source="uXnud2EJCDOm0gtdYonn-339" target="uXnud2EJCDOm0gtdYonn-336">
          <mxGeometry relative="1" as="geometry" />
        </mxCell>
        <mxCell id="uXnud2EJCDOm0gtdYonn-339" value="&lt;font color=&quot;#000000&quot; style=&quot;font-size: 26px; background-color: rgb(255, 255, 255);&quot;&gt;X&lt;/font&gt;" style="ellipse;whiteSpace=wrap;html=1;aspect=fixed;strokeColor=#000000;fillColor=#FFFFFF;" vertex="1" parent="1">
          <mxGeometry x="1001.17" y="760" width="40" height="40" as="geometry" />
        </mxCell>
        <mxCell id="uXnud2EJCDOm0gtdYonn-340" style="edgeStyle=none;html=1;entryX=0;entryY=0.5;entryDx=0;entryDy=0;strokeColor=#000000;fontColor=#000000;" edge="1" parent="1" source="uXnud2EJCDOm0gtdYonn-341" target="uXnud2EJCDOm0gtdYonn-339">
          <mxGeometry relative="1" as="geometry" />
        </mxCell>
        <mxCell id="uXnud2EJCDOm0gtdYonn-341" value="&lt;font style=&quot;font-size: 26px;&quot; color=&quot;#000000&quot;&gt;Ux(n-N)&lt;/font&gt;&lt;font style=&quot;font-size: 21.6667px;&quot; color=&quot;#000000&quot;&gt;&lt;sup&gt;0&lt;/sup&gt;&lt;/font&gt;" style="rounded=0;whiteSpace=wrap;html=1;fillColor=#FFFFFF;strokeColor=#000000;" vertex="1" parent="1">
          <mxGeometry x="741.17" y="750" width="120" height="60" as="geometry" />
        </mxCell>
        <mxCell id="uXnud2EJCDOm0gtdYonn-347" value="&lt;span style=&quot;background-color: rgb(255, 255, 255);&quot;&gt;&lt;font style=&quot;&quot; color=&quot;#000000&quot;&gt;&lt;span style=&quot;font-size: 26px;&quot;&gt;C&lt;/span&gt;&lt;span style=&quot;font-size: 15.0463px;&quot;&gt;P*N&lt;/span&gt;&lt;/font&gt;&lt;/span&gt;" style="ellipse;whiteSpace=wrap;html=1;aspect=fixed;strokeColor=#000000;fillColor=#FFFFFF;" vertex="1" parent="1">
          <mxGeometry x="1728.1699999999998" y="670" width="50" height="50" as="geometry" />
        </mxCell>
        <mxCell id="uXnud2EJCDOm0gtdYonn-349" style="edgeStyle=orthogonalEdgeStyle;rounded=0;orthogonalLoop=1;jettySize=auto;html=1;exitX=1;exitY=0.5;exitDx=0;exitDy=0;" edge="1" parent="1" source="uXnud2EJCDOm0gtdYonn-350">
          <mxGeometry relative="1" as="geometry">
            <mxPoint x="1898.6700000000003" y="687" as="targetPoint" />
            <mxPoint x="1850.0000000000002" y="777" as="sourcePoint" />
          </mxGeometry>
        </mxCell>
        <mxCell id="uXnud2EJCDOm0gtdYonn-372" style="edgeStyle=orthogonalEdgeStyle;rounded=0;orthogonalLoop=1;jettySize=auto;html=1;exitX=0.5;exitY=0;exitDx=0;exitDy=0;entryX=0.5;entryY=1;entryDx=0;entryDy=0;" edge="1" parent="1" source="uXnud2EJCDOm0gtdYonn-350" target="uXnud2EJCDOm0gtdYonn-347">
          <mxGeometry relative="1" as="geometry" />
        </mxCell>
        <mxCell id="uXnud2EJCDOm0gtdYonn-350" value="&lt;font color=&quot;#000000&quot; style=&quot;font-size: 26px; background-color: rgb(255, 255, 255);&quot;&gt;X&lt;/font&gt;" style="ellipse;whiteSpace=wrap;html=1;aspect=fixed;strokeColor=#000000;fillColor=#FFFFFF;" vertex="1" parent="1">
          <mxGeometry x="1733.83" y="760" width="40" height="40" as="geometry" />
        </mxCell>
        <mxCell id="uXnud2EJCDOm0gtdYonn-351" style="edgeStyle=none;html=1;entryX=0;entryY=0.5;entryDx=0;entryDy=0;strokeColor=#000000;fontColor=#000000;" edge="1" parent="1" source="uXnud2EJCDOm0gtdYonn-352" target="uXnud2EJCDOm0gtdYonn-350">
          <mxGeometry relative="1" as="geometry" />
        </mxCell>
        <mxCell id="uXnud2EJCDOm0gtdYonn-352" value="&lt;font style=&quot;font-size: 26px;&quot; color=&quot;#000000&quot;&gt;Ux(n-N)&lt;/font&gt;&lt;font style=&quot;font-size: 21.6667px;&quot; color=&quot;#000000&quot;&gt;&lt;sup&gt;P&lt;/sup&gt;&lt;/font&gt;" style="rounded=0;whiteSpace=wrap;html=1;fillColor=#FFFFFF;strokeColor=#000000;" vertex="1" parent="1">
          <mxGeometry x="1473.83" y="750" width="120" height="60" as="geometry" />
        </mxCell>
        <mxCell id="uXnud2EJCDOm0gtdYonn-354" style="edgeStyle=orthogonalEdgeStyle;rounded=0;orthogonalLoop=1;jettySize=auto;html=1;exitX=0.5;exitY=0;exitDx=0;exitDy=0;entryX=0.5;entryY=1;entryDx=0;entryDy=0;" edge="1" parent="1" source="uXnud2EJCDOm0gtdYonn-353" target="uXnud2EJCDOm0gtdYonn-314">
          <mxGeometry relative="1" as="geometry" />
        </mxCell>
        <mxCell id="uXnud2EJCDOm0gtdYonn-355" value="" style="endArrow=none;dashed=1;html=1;dashPattern=1 3;strokeWidth=2;rounded=0;entryX=0.5;entryY=1;entryDx=0;entryDy=0;" edge="1" parent="1" target="uXnud2EJCDOm0gtdYonn-353">
          <mxGeometry width="50" height="50" relative="1" as="geometry">
            <mxPoint x="1900" y="690" as="sourcePoint" />
            <mxPoint x="1094" y="647" as="targetPoint" />
          </mxGeometry>
        </mxCell>
        <mxCell id="uXnud2EJCDOm0gtdYonn-358" value="" style="endArrow=none;dashed=1;html=1;dashPattern=1 3;strokeWidth=2;strokeColor=#000000;fontColor=#000000;" edge="1" parent="1" source="uXnud2EJCDOm0gtdYonn-362" target="uXnud2EJCDOm0gtdYonn-344">
          <mxGeometry width="50" height="50" relative="1" as="geometry">
            <mxPoint x="1190" y="790" as="sourcePoint" />
            <mxPoint x="1183.83" y="7.910000000000025" as="targetPoint" />
          </mxGeometry>
        </mxCell>
        <mxCell id="uXnud2EJCDOm0gtdYonn-360" style="edgeStyle=orthogonalEdgeStyle;rounded=0;orthogonalLoop=1;jettySize=auto;html=1;" edge="1" parent="1" source="uXnud2EJCDOm0gtdYonn-344" target="uXnud2EJCDOm0gtdYonn-271">
          <mxGeometry relative="1" as="geometry" />
        </mxCell>
        <mxCell id="uXnud2EJCDOm0gtdYonn-344" value="&lt;font color=&quot;#000000&quot; style=&quot;font-size: 26px; background-color: rgb(255, 255, 255);&quot;&gt;+&lt;/font&gt;" style="ellipse;whiteSpace=wrap;html=1;aspect=fixed;strokeColor=#000000;fillColor=#FFFFFF;" vertex="1" parent="1">
          <mxGeometry x="1168.9999999999998" y="597" width="40" height="40" as="geometry" />
        </mxCell>
        <mxCell id="uXnud2EJCDOm0gtdYonn-271" value="&lt;font color=&quot;#000000&quot; style=&quot;font-size: 26px; background-color: rgb(255, 255, 255);&quot;&gt;+&lt;/font&gt;" style="ellipse;whiteSpace=wrap;html=1;aspect=fixed;strokeColor=#000000;fillColor=#FFFFFF;" vertex="1" parent="1">
          <mxGeometry x="1169" y="497" width="40" height="40" as="geometry" />
        </mxCell>
        <mxCell id="uXnud2EJCDOm0gtdYonn-363" value="" style="endArrow=none;dashed=1;html=1;dashPattern=1 3;strokeWidth=2;strokeColor=#000000;fontColor=#000000;" edge="1" parent="1" target="uXnud2EJCDOm0gtdYonn-362">
          <mxGeometry width="50" height="50" relative="1" as="geometry">
            <mxPoint x="1190" y="790" as="sourcePoint" />
            <mxPoint x="1189" y="637" as="targetPoint" />
          </mxGeometry>
        </mxCell>
        <mxCell id="uXnud2EJCDOm0gtdYonn-369" style="edgeStyle=orthogonalEdgeStyle;rounded=0;orthogonalLoop=1;jettySize=auto;html=1;exitX=0.5;exitY=0;exitDx=0;exitDy=0;entryX=0.5;entryY=1;entryDx=0;entryDy=0;dashed=1;" edge="1" parent="1" source="uXnud2EJCDOm0gtdYonn-362" target="uXnud2EJCDOm0gtdYonn-344">
          <mxGeometry relative="1" as="geometry">
            <mxPoint x="1189" y="640" as="targetPoint" />
          </mxGeometry>
        </mxCell>
        <mxCell id="uXnud2EJCDOm0gtdYonn-362" value="&lt;font color=&quot;#000000&quot; style=&quot;font-size: 26px; background-color: rgb(255, 255, 255);&quot;&gt;+&lt;/font&gt;" style="ellipse;whiteSpace=wrap;html=1;aspect=fixed;strokeColor=#000000;fillColor=#FFFFFF;" vertex="1" parent="1">
          <mxGeometry x="1168.9999999999998" y="760" width="40" height="40" as="geometry" />
        </mxCell>
        <mxCell id="uXnud2EJCDOm0gtdYonn-366" style="edgeStyle=orthogonalEdgeStyle;rounded=0;orthogonalLoop=1;jettySize=auto;html=1;entryX=0.5;entryY=1;entryDx=0;entryDy=0;dashed=1;" edge="1" parent="1" source="uXnud2EJCDOm0gtdYonn-364" target="uXnud2EJCDOm0gtdYonn-311">
          <mxGeometry relative="1" as="geometry" />
        </mxCell>
        <mxCell id="uXnud2EJCDOm0gtdYonn-364" value="&lt;font color=&quot;#000000&quot; style=&quot;font-size: 26px; background-color: rgb(255, 255, 255);&quot;&gt;+&lt;/font&gt;" style="ellipse;whiteSpace=wrap;html=1;aspect=fixed;strokeColor=#000000;fillColor=#FFFFFF;" vertex="1" parent="1">
          <mxGeometry x="599.9999999999998" y="760" width="40" height="40" as="geometry" />
        </mxCell>
        <mxCell id="uXnud2EJCDOm0gtdYonn-377" value="&lt;p style=&quot;line-height: 120%;&quot;&gt;&lt;font style=&quot;font-size: 26px;&quot; color=&quot;#000000&quot;&gt;XR XI&lt;/font&gt;&lt;/p&gt;" style="rounded=0;whiteSpace=wrap;html=1;strokeColor=#000000;fillColor=#FFFFFF;" vertex="1" parent="1">
          <mxGeometry x="2190" y="487" width="120" height="60" as="geometry" />
        </mxCell>
        <mxCell id="uXnud2EJCDOm0gtdYonn-378" value="" style="endArrow=none;dashed=1;html=1;dashPattern=1 3;strokeWidth=2;strokeColor=#000000;fontColor=#000000;" edge="1" parent="1" source="uXnud2EJCDOm0gtdYonn-353" target="uXnud2EJCDOm0gtdYonn-314">
          <mxGeometry width="50" height="50" relative="1" as="geometry">
            <mxPoint x="1894" y="820" as="sourcePoint" />
            <mxPoint x="1893.83" y="7.670000000000016" as="targetPoint" />
          </mxGeometry>
        </mxCell>
        <mxCell id="uXnud2EJCDOm0gtdYonn-314" value="&lt;font color=&quot;#000000&quot; style=&quot;font-size: 26px; background-color: rgb(255, 255, 255);&quot;&gt;+&lt;/font&gt;" style="ellipse;whiteSpace=wrap;html=1;aspect=fixed;strokeColor=#000000;fillColor=#FFFFFF;" vertex="1" parent="1">
          <mxGeometry x="1880" y="497" width="40" height="40" as="geometry" />
        </mxCell>
        <mxCell id="uXnud2EJCDOm0gtdYonn-353" value="&lt;font color=&quot;#000000&quot; style=&quot;font-size: 26px; background-color: rgb(255, 255, 255);&quot;&gt;+&lt;/font&gt;" style="ellipse;whiteSpace=wrap;html=1;aspect=fixed;strokeColor=#000000;fillColor=#FFFFFF;" vertex="1" parent="1">
          <mxGeometry x="1879.9999999999995" y="597" width="40" height="40" as="geometry" />
        </mxCell>
      </root>
    </mxGraphModel>
  </diagram>
</mxfile>
